<?xml version="1.0" encoding="utf-8"?>
<!-- Generator: Adobe Illustrator 25.2.3, SVG Export Plug-In . SVG Version: 6.00 Build 0)  -->
<svg version="1.1" id="图层_1" xmlns="http://www.w3.org/2000/svg" xmlns:xlink="http://www.w3.org/1999/xlink" x="0px" y="0px"
	 viewBox="0 0 2048 2048" style="enable-background:new 0 0 2048 2048;" xml:space="preserve">
<style type="text/css">
	.st0{fill:#43B07E;}
	.st1{fill:#66B498;}
	.st2{fill:#4F7464;}
	.st3{fill:url(#SVGID_1_);}
	.st4{fill:none;stroke:#000000;stroke-miterlimit:10;}
	.st5{fill:#FFFFFF;}
</style>
<path class="st0" d="M1612.35,496.24c-70.48,214.3-98.76,849.35-59.51,1087.4c9.85,59.73-19.52,120.84-68.8,142.13
	c-198.64,85.89-572.01,227.15-393.89-10.51c118.75-32.35,223.27-88.21,282.58-152.7c20.08-21.82,17.93-53.32-4.68-73.18
	l-100.32-88.08c110.8-351.96,118.88-870.53,119.29-981.7c0.07-15.32,2.59-30.62,7.4-45.08
	C1501.62,51.67,1699.08,232.46,1612.35,496.24z"/>
<path class="st1" d="M1267.72,1401.31c-32.92,104.57-74.9,194.42-128.45,254.52c-19.62,22.02-35.9,41.77-49.13,59.43l-42.37-507.03
	L1267.72,1401.31z"/>
<path class="st2" d="M1372.73,1562.57c-59.31,64.48-163.83,120.35-282.58,152.7c0,0,0,0,0-0.01c13.23-17.66,29.51-37.41,49.13-59.43
	c53.55-60.1,95.53-149.95,128.45-254.52l100.32,88.08C1390.66,1509.25,1392.8,1540.74,1372.73,1562.57z"/>
<linearGradient id="SVGID_1_" gradientUnits="userSpaceOnUse" x1="1118.2404" y1="800.1924" x2="609.1594" y2="1681.9465">
	<stop  offset="0" style="stop-color:#80CBD1"/>
	<stop  offset="0.1619" style="stop-color:#7BC9CA"/>
	<stop  offset="0.4259" style="stop-color:#6FC3B7"/>
	<stop  offset="0.7572" style="stop-color:#59B898"/>
	<stop  offset="1" style="stop-color:#43B07E"/>
</linearGradient>
<path class="st3" d="M1090.14,1715.25c0,0.01,0,0.01,0,0.01c-262.05,71.37-593.36,28.27-660.91-289.29
	c-102.48-481.9,347.01-657.82,515.17-706.1c31.01-8.9,63.39,9.88,65.76,38.19l37.62,450.16L1090.14,1715.25z"/>
<path class="st4" d="M1024,1024"/>
<path class="st4" d="M1024,1024"/>
<path class="st5" d="M753.53,1181.9c88.55,81.83,111.43,190.28,57.74,248.38c-27.38,29.63-70.18,39.74-116.89,32
	c32.39-93.07,48.9-191.39,56.88-277.92L753.53,1181.9z"/>
</svg>
